<?xml version="1.0" encoding="UTF-8" standalone="no"?><svg xmlns="http://www.w3.org/2000/svg" xmlns:xlink="http://www.w3.org/1999/xlink" data-name="Layer 1" fill="#ffffff" height="18" preserveAspectRatio="xMidYMid meet" version="1" viewBox="5.5 7.0 21.0 18.0" width="21" zoomAndPan="magnify"><g id="change1_1"><path d="M5.79,15.29a1,1,0,0,1,1.42,0l1.29,1.3V16a9,9,0,1,1,9,9,8.88,8.88,0,0,1-5.14-1.62,1,1,0,0,1,1.16-1.64,6.8,6.8,0,0,0,4,1.26,7,7,0,1,0-7-7v.59l1.29-1.3a1,1,0,0,1,1.42,1.42l-3,3,0,0a.85.85,0,0,1-.3.19h0a.81.81,0,0,1-.31.06H9.43a1,1,0,0,1-.24,0l-.1,0a1.17,1.17,0,0,1-.3-.19l-3-3A1,1,0,0,1,5.79,15.29Z" fill="inherit"/></g></svg>