<?xml version="1.0" encoding="UTF-8" standalone="no"?><svg xmlns="http://www.w3.org/2000/svg" xmlns:xlink="http://www.w3.org/1999/xlink" fill="#000000" height="351.3" preserveAspectRatio="xMidYMid meet" version="1" viewBox="164.7 122.0 265.8 351.3" width="265.8" zoomAndPan="magnify"><g id="change1_1"><path d="M 373.910156 273.578125 L 221.414062 273.578125 L 221.414062 237.742188 C 221.445312 236.433594 222.148438 214.671875 232.179688 193.730469 C 245.023438 166.941406 266.433594 153.917969 297.640625 153.917969 C 328.890625 153.917969 350.320312 166.652344 363.152344 192.859375 C 373.207031 213.40625 373.890625 234.75 373.910156 235.792969 Z M 268.582031 408.433594 L 284.414062 381.023438 C 275.484375 376.277344 269.410156 366.882812 269.410156 356.070312 C 269.410156 340.484375 282.050781 327.84375 297.640625 327.84375 C 313.226562 327.84375 325.867188 340.484375 325.867188 356.070312 C 325.867188 366.882812 319.792969 376.277344 310.867188 381.023438 L 326.6875 408.433594 Z M 406.160156 273.578125 L 405.851562 273.578125 L 405.851562 235.496094 C 405.839844 234.355469 405.402344 207.222656 392.382812 179.933594 C 379.761719 153.492188 353.085938 121.976562 297.640625 121.976562 C 242.117188 121.976562 215.453125 154.074219 202.867188 181.007812 C 189.894531 208.746094 189.480469 236.28125 189.472656 237.441406 L 189.472656 273.578125 L 189.109375 273.578125 C 175.691406 273.578125 164.722656 284.558594 164.722656 297.976562 L 164.722656 448.90625 C 164.722656 462.324219 175.691406 473.304688 189.109375 473.304688 L 406.160156 473.304688 C 419.578125 473.304688 430.558594 462.324219 430.558594 448.90625 L 430.558594 297.976562 C 430.558594 284.558594 419.578125 273.578125 406.160156 273.578125" fill="#ffffff"/></g></svg>